<svg xmlns="http://www.w3.org/2000/svg" xmlns:xlink="http://www.w3.org/1999/xlink" contentStyleType="text/css" data-diagram-type="CLASS" height="852px" preserveAspectRatio="none" style="width:2977px;height:852px;background:#FFFFFF;" version="1.1" viewBox="0 0 2977 852" width="2977px" zoomAndPan="magnify"><defs/><g><!--class users--><g class="entity" data-entity="users" data-source-line="11" data-uid="ent0002" id="entity_users"><rect fill="#F1F1F1" height="129.4844" rx="2.5" ry="2.5" style="stroke:#181818;stroke-width:0.5;" width="251.6816" x="1663.62" y="106.27"/><ellipse cx="1766.2958" cy="122.27" fill="#ADD1B2" rx="11" ry="11" style="stroke:#181818;stroke-width:1;"/><path d="M1770.4052,128.27 L1762.6864,128.27 L1762.6864,115.8794 L1770.4052,115.8794 L1770.4052,118.0356 L1765.1395,118.0356 L1765.1395,120.7075 L1769.9052,120.7075 L1769.9052,122.8637 L1765.1395,122.8637 L1765.1395,126.1137 L1770.4052,126.1137 L1770.4052,128.27 Z " fill="#000000"/><text fill="#000000" font-family="sans-serif" font-size="14" lengthAdjust="spacing" textLength="37.8301" x="1786.7958" y="127.1167">users</text><line style="stroke:#181818;stroke-width:0.5;" x1="1664.62" x2="1914.3016" y1="138.27" y2="138.27"/><ellipse cx="1674.62" cy="151.9184" fill="#000000" rx="3" ry="3" style="stroke:#000000;stroke-width:1;"/><text fill="#000000" font-family="sans-serif" font-size="14" lengthAdjust="spacing" textLength="101.001" x="1683.62" y="155.2651">id : UUID &#171;PK&#187;</text><line style="stroke:#181818;stroke-width:1;" x1="1664.62" x2="1914.3016" y1="162.5669" y2="162.5669"/><text fill="#000000" font-family="sans-serif" font-size="14" lengthAdjust="spacing" textLength="204.7568" x="1669.62" y="179.562">email : string {&#1091;&#1085;&#1080;&#1082;&#1072;&#1083;&#1100;&#1085;&#1099;&#1081;}</text><text fill="#000000" font-family="sans-serif" font-size="14" lengthAdjust="spacing" textLength="93.5088" x="1669.62" y="195.8589">name : string</text><text fill="#000000" font-family="sans-serif" font-size="14" lengthAdjust="spacing" textLength="163.8369" x="1669.62" y="212.1557">created_at : timestamp</text><text fill="#000000" font-family="sans-serif" font-size="14" lengthAdjust="spacing" textLength="239.6816" x="1669.62" y="228.4526">status : enum (active, suspended)</text></g><g class="entity" data-entity="GMN3" data-source-line="21" data-uid="ent0004" id="entity_GMN3"><path d="M1601.45,6 L1601.45,46.2656 A0,0 0 0 0 1601.45,46.2656 L1785.46,46.2656 L1789.46,106.09 L1793.46,46.2656 L1977.4808,46.2656 A0,0 0 0 0 1977.4808,46.2656 L1977.4808,16 L1967.4808,6 L1601.45,6 A0,0 0 0 0 1601.45,6" fill="#FEFFDD" style="stroke:#181818;stroke-width:0.5;"/><path d="M1967.4808,6 L1967.4808,16 L1977.4808,16 L1967.4808,6" fill="#FEFFDD" style="stroke:#181818;stroke-width:0.5;"/><text fill="#000000" font-family="sans-serif" font-size="13" lengthAdjust="spacing" textLength="355.0308" x="1607.45" y="23.0669">&#1055;&#1086;&#1083;&#1100;&#1079;&#1086;&#1074;&#1072;&#1090;&#1077;&#1083;&#1080; &#1089;&#1080;&#1089;&#1090;&#1077;&#1084;&#1099; &#8212; &#1074;&#1083;&#1072;&#1076;&#1077;&#1083;&#1100;&#1094;&#1099; &#1091;&#1084;&#1085;&#1099;&#1093; &#1076;&#1086;&#1084;&#1086;&#1074;.</text><text fill="#000000" font-family="sans-serif" font-size="13" lengthAdjust="spacing" textLength="354.5483" x="1607.45" y="38.1997">&#1048;&#1084;&#1077;&#1102;&#1090; &#1072;&#1082;&#1082;&#1072;&#1091;&#1085;&#1090; &#1080; &#1091;&#1087;&#1088;&#1072;&#1074;&#1083;&#1103;&#1102;&#1090; &#1089;&#1074;&#1086;&#1080;&#1084;&#1080; &#1091;&#1089;&#1090;&#1088;&#1086;&#1081;&#1089;&#1090;&#1074;&#1072;&#1084;&#1080;.</text></g><!--class devices--><g class="entity" data-entity="devices" data-source-line="25" data-uid="ent0006" id="entity_devices"><rect fill="#F1F1F1" height="194.6719" rx="2.5" ry="2.5" style="stroke:#181818;stroke-width:0.5;" width="387.5049" x="585.71" y="295.75"/><ellipse cx="748.5728" cy="311.75" fill="#ADD1B2" rx="11" ry="11" style="stroke:#181818;stroke-width:1;"/><path d="M752.6822,317.75 L744.9634,317.75 L744.9634,305.3594 L752.6822,305.3594 L752.6822,307.5156 L747.4165,307.5156 L747.4165,310.1875 L752.1822,310.1875 L752.1822,312.3438 L747.4165,312.3438 L747.4165,315.5938 L752.6822,315.5938 L752.6822,317.75 Z " fill="#000000"/><text fill="#000000" font-family="sans-serif" font-size="14" lengthAdjust="spacing" textLength="53.2793" x="769.0728" y="316.5967">devices</text><line style="stroke:#181818;stroke-width:0.5;" x1="586.71" x2="972.2149" y1="327.75" y2="327.75"/><ellipse cx="596.71" cy="341.3984" fill="#000000" rx="3" ry="3" style="stroke:#000000;stroke-width:1;"/><text fill="#000000" font-family="sans-serif" font-size="14" lengthAdjust="spacing" textLength="101.001" x="605.71" y="344.7451">id : UUID &#171;PK&#187;</text><line style="stroke:#181818;stroke-width:1;" x1="586.71" x2="972.2149" y1="352.0469" y2="352.0469"/><text fill="#000000" font-family="sans-serif" font-size="14" lengthAdjust="spacing" textLength="138.1475" x="591.71" y="369.042">user_id : UUID &#171;FK&#187;</text><text fill="#000000" font-family="sans-serif" font-size="14" lengthAdjust="spacing" textLength="178.5205" x="591.71" y="385.3389">partner_device_id : string</text><text fill="#000000" font-family="sans-serif" font-size="14" lengthAdjust="spacing" textLength="93.5088" x="591.71" y="401.6357">name : string</text><text fill="#000000" font-family="sans-serif" font-size="14" lengthAdjust="spacing" textLength="375.5049" x="591.71" y="417.9326">type : enum (thermostat, light, gate, camera, sensor)</text><text fill="#000000" font-family="sans-serif" font-size="14" lengthAdjust="spacing" textLength="239.7705" x="591.71" y="434.2295">protocol : enum (mqtt, http, soap)</text><text fill="#000000" font-family="sans-serif" font-size="14" lengthAdjust="spacing" textLength="250.6465" x="591.71" y="450.5264">status : enum (online, offline, error)</text><text fill="#000000" font-family="sans-serif" font-size="14" lengthAdjust="spacing" textLength="154.7793" x="591.71" y="466.8232">last_seen : timestamp</text><text fill="#000000" font-family="sans-serif" font-size="14" lengthAdjust="spacing" textLength="163.8369" x="591.71" y="483.1201">created_at : timestamp</text></g><g class="entity" data-entity="GMN7" data-source-line="39" data-uid="ent0008" id="entity_GMN7"><path d="M538.95,143.31 L538.95,198.7084 A0,0 0 0 0 538.95,198.7084 L775.46,198.7084 L779.46,295.33 L783.46,198.7084 L1019.9773,198.7084 A0,0 0 0 0 1019.9773,198.7084 L1019.9773,153.31 L1009.9773,143.31 L538.95,143.31 A0,0 0 0 0 538.95,143.31" fill="#FEFFDD" style="stroke:#181818;stroke-width:0.5;"/><path d="M1009.9773,143.31 L1009.9773,153.31 L1019.9773,153.31 L1009.9773,143.31" fill="#FEFFDD" style="stroke:#181818;stroke-width:0.5;"/><text fill="#000000" font-family="sans-serif" font-size="13" lengthAdjust="spacing" textLength="380.4214" x="544.95" y="160.3769">&#1059;&#1089;&#1090;&#1088;&#1086;&#1081;&#1089;&#1090;&#1074;&#1072; &#1091;&#1084;&#1085;&#1086;&#1075;&#1086; &#1076;&#1086;&#1084;&#1072;, &#1087;&#1086;&#1076;&#1082;&#1083;&#1102;&#1095;&#1105;&#1085;&#1085;&#1099;&#1077; &#1082; &#1101;&#1082;&#1086;&#1089;&#1080;&#1089;&#1090;&#1077;&#1084;&#1077;.</text><text fill="#000000" font-family="sans-serif" font-size="13" lengthAdjust="spacing" textLength="460.0273" x="544.95" y="175.5097">&#1055;&#1088;&#1080;&#1074;&#1103;&#1079;&#1072;&#1085;&#1099; &#1082; &#1087;&#1086;&#1083;&#1100;&#1079;&#1086;&#1074;&#1072;&#1090;&#1077;&#1083;&#1102;. &#1055;&#1086;&#1076;&#1076;&#1077;&#1088;&#1078;&#1080;&#1074;&#1072;&#1102;&#1090; MQTT, HTTP &#1080;&#1083;&#1080; SOAP.</text><text fill="#000000" font-family="sans-serif" font-size="13" lengthAdjust="spacing" textLength="378.9297" x="544.95" y="190.6425">partner_device_id &#8212; &#1080;&#1076;&#1077;&#1085;&#1090;&#1080;&#1092;&#1080;&#1082;&#1072;&#1090;&#1086;&#1088; &#1086;&#1090; &#1087;&#1088;&#1086;&#1080;&#1079;&#1074;&#1086;&#1076;&#1080;&#1090;&#1077;&#1083;&#1103;.</text></g><!--class device_capabilities--><g class="entity" data-entity="device_capabilities" data-source-line="44" data-uid="ent0010" id="entity_device_capabilities"><rect fill="#F1F1F1" height="96.8906" rx="2.5" ry="2.5" style="stroke:#181818;stroke-width:0.5;" width="206.1201" x="310.4" y="599.31"/><ellipse cx="344.0979" cy="615.31" fill="#ADD1B2" rx="11" ry="11" style="stroke:#181818;stroke-width:1;"/><path d="M348.2072,621.31 L340.4885,621.31 L340.4885,608.9194 L348.2072,608.9194 L348.2072,611.0756 L342.9416,611.0756 L342.9416,613.7475 L347.7072,613.7475 L347.7072,615.9038 L342.9416,615.9038 L342.9416,619.1538 L348.2072,619.1538 L348.2072,621.31 Z " fill="#000000"/><text fill="#000000" font-family="sans-serif" font-size="14" lengthAdjust="spacing" textLength="132.5693" x="362.2529" y="620.1567">device_capabilities</text><line style="stroke:#181818;stroke-width:0.5;" x1="311.4" x2="515.5201" y1="631.31" y2="631.31"/><ellipse cx="321.4" cy="644.9584" fill="#000000" rx="3" ry="3" style="stroke:#000000;stroke-width:1;"/><text fill="#000000" font-family="sans-serif" font-size="14" lengthAdjust="spacing" textLength="180.1201" x="330.4" y="648.3051">device_id : UUID &#171;PK, FK&#187;</text><ellipse cx="321.4" cy="661.2553" fill="#000000" rx="3" ry="3" style="stroke:#000000;stroke-width:1;"/><text fill="#000000" font-family="sans-serif" font-size="14" lengthAdjust="spacing" textLength="161.082" x="330.4" y="664.602">capability : string &#171;PK&#187;</text><line style="stroke:#181818;stroke-width:1;" x1="311.4" x2="515.5201" y1="671.9038" y2="671.9038"/><text fill="#000000" font-family="sans-serif" font-size="14" lengthAdjust="spacing" textLength="110.0928" x="316.4" y="688.8989">metadata : json</text></g><g class="entity" data-entity="GMN11" data-source-line="52" data-uid="ent0012" id="entity_GMN11"><path d="M6,365.39 L6,420.7884 A0,0 0 0 0 6,420.7884 L409.46,420.7884 L413.46,599.21 L417.46,420.7884 L550.9229,420.7884 A0,0 0 0 0 550.9229,420.7884 L550.9229,375.39 L540.9229,365.39 L6,365.39 A0,0 0 0 0 6,365.39" fill="#FEFFDD" style="stroke:#181818;stroke-width:0.5;"/><path d="M540.9229,365.39 L540.9229,375.39 L550.9229,375.39 L540.9229,365.39" fill="#FEFFDD" style="stroke:#181818;stroke-width:0.5;"/><text fill="#000000" font-family="sans-serif" font-size="13" lengthAdjust="spacing" textLength="380.9673" x="12" y="382.4569">&#1054;&#1087;&#1080;&#1089;&#1099;&#1074;&#1072;&#1077;&#1090; &#1092;&#1091;&#1085;&#1082;&#1094;&#1080;&#1086;&#1085;&#1072;&#1083;&#1100;&#1085;&#1099;&#1077; &#1074;&#1086;&#1079;&#1084;&#1086;&#1078;&#1085;&#1086;&#1089;&#1090;&#1080; &#1091;&#1089;&#1090;&#1088;&#1086;&#1081;&#1089;&#1090;&#1074;&#1072;.</text><text fill="#000000" font-family="sans-serif" font-size="13" lengthAdjust="spacing" textLength="361.0864" x="12" y="397.5897">&#1053;&#1072;&#1087;&#1088;&#1080;&#1084;&#1077;&#1088;: "temperature_control", "motion_detection".</text><text fill="#000000" font-family="sans-serif" font-size="13" lengthAdjust="spacing" textLength="523.9229" x="12" y="412.7225">metadata &#8212; &#1076;&#1086;&#1087;&#1086;&#1083;&#1085;&#1080;&#1090;&#1077;&#1083;&#1100;&#1085;&#1099;&#1077; &#1087;&#1072;&#1088;&#1072;&#1084;&#1077;&#1090;&#1088;&#1099; (&#1076;&#1080;&#1072;&#1087;&#1072;&#1079;&#1086;&#1085;&#1099;, &#1077;&#1076;&#1080;&#1085;&#1080;&#1094;&#1099; &#1080;&#1079;&#1084;&#1077;&#1088;&#1077;&#1085;&#1080;&#1103;).</text></g><!--class automation_rules--><g class="entity" data-entity="automation_rules" data-source-line="57" data-uid="ent0014" id="entity_automation_rules"><rect fill="#F1F1F1" height="178.375" rx="2.5" ry="2.5" style="stroke:#181818;stroke-width:0.5;" width="351.6846" x="1613.62" y="303.9"/><ellipse cx="1724.2289" cy="319.9" fill="#ADD1B2" rx="11" ry="11" style="stroke:#181818;stroke-width:1;"/><path d="M1728.3383,325.9 L1720.6195,325.9 L1720.6195,313.5094 L1728.3383,313.5094 L1728.3383,315.6656 L1723.0726,315.6656 L1723.0726,318.3375 L1727.8383,318.3375 L1727.8383,320.4938 L1723.0726,320.4938 L1723.0726,323.7438 L1728.3383,323.7438 L1728.3383,325.9 Z " fill="#000000"/><text fill="#000000" font-family="sans-serif" font-size="14" lengthAdjust="spacing" textLength="121.9668" x="1744.7289" y="324.7467">automation_rules</text><line style="stroke:#181818;stroke-width:0.5;" x1="1614.62" x2="1964.3046" y1="335.9" y2="335.9"/><ellipse cx="1624.62" cy="349.5484" fill="#000000" rx="3" ry="3" style="stroke:#000000;stroke-width:1;"/><text fill="#000000" font-family="sans-serif" font-size="14" lengthAdjust="spacing" textLength="101.001" x="1633.62" y="352.8951">id : UUID &#171;PK&#187;</text><line style="stroke:#181818;stroke-width:1;" x1="1614.62" x2="1964.3046" y1="360.1969" y2="360.1969"/><text fill="#000000" font-family="sans-serif" font-size="14" lengthAdjust="spacing" textLength="138.1475" x="1619.62" y="377.192">user_id : UUID &#171;FK&#187;</text><text fill="#000000" font-family="sans-serif" font-size="14" lengthAdjust="spacing" textLength="93.5088" x="1619.62" y="393.4889">name : string</text><text fill="#000000" font-family="sans-serif" font-size="14" lengthAdjust="spacing" textLength="339.6846" x="1619.62" y="409.7857">trigger_type : enum (event, schedule, condition)</text><text fill="#000000" font-family="sans-serif" font-size="14" lengthAdjust="spacing" textLength="139.3574" x="1619.62" y="426.0826">trigger_config : json</text><text fill="#000000" font-family="sans-serif" font-size="14" lengthAdjust="spacing" textLength="135.1738" x="1619.62" y="442.3795">action_config : json</text><text fill="#000000" font-family="sans-serif" font-size="14" lengthAdjust="spacing" textLength="130.3271" x="1619.62" y="458.6764">is_active : boolean</text><text fill="#000000" font-family="sans-serif" font-size="14" lengthAdjust="spacing" textLength="163.8369" x="1619.62" y="474.9732">created_at : timestamp</text></g><g class="entity" data-entity="GMN15" data-source-line="70" data-uid="ent0016" id="entity_GMN15"><path d="M1510.67,627.63 L1510.67,667.8956 A0,0 0 0 0 1510.67,667.8956 L2068.2501,667.8956 A0,0 0 0 0 2068.2501,667.8956 L2068.2501,637.63 L2058.2501,627.63 L1793.46,627.63 L1789.46,482.52 L1785.46,627.63 L1510.67,627.63 A0,0 0 0 0 1510.67,627.63" fill="#FEFFDD" style="stroke:#181818;stroke-width:0.5;"/><path d="M2058.2501,627.63 L2058.2501,637.63 L2068.2501,637.63 L2058.2501,627.63" fill="#FEFFDD" style="stroke:#181818;stroke-width:0.5;"/><text fill="#000000" font-family="sans-serif" font-size="13" lengthAdjust="spacing" textLength="310.7622" x="1516.67" y="644.6969">&#1055;&#1086;&#1083;&#1100;&#1079;&#1086;&#1074;&#1072;&#1090;&#1077;&#1083;&#1100;&#1089;&#1082;&#1080;&#1077; &#1089;&#1094;&#1077;&#1085;&#1072;&#1088;&#1080;&#1080; &#1072;&#1074;&#1090;&#1086;&#1084;&#1072;&#1090;&#1080;&#1079;&#1072;&#1094;&#1080;&#1080;.</text><text fill="#000000" font-family="sans-serif" font-size="13" lengthAdjust="spacing" textLength="536.5801" x="1516.67" y="659.8297">&#1061;&#1088;&#1072;&#1085;&#1103;&#1090;&#1089;&#1103; &#1074; &#1075;&#1080;&#1073;&#1082;&#1086;&#1084; &#1092;&#1086;&#1088;&#1084;&#1072;&#1090;&#1077; JSON &#1076;&#1083;&#1103; &#1087;&#1086;&#1076;&#1076;&#1077;&#1088;&#1078;&#1082;&#1080; &#1083;&#1102;&#1073;&#1099;&#1093; &#1091;&#1089;&#1083;&#1086;&#1074;&#1080;&#1081; &#1080; &#1076;&#1077;&#1081;&#1089;&#1090;&#1074;&#1080;&#1081;.</text></g><!--class support_tickets--><g class="entity" data-entity="support_tickets" data-source-line="74" data-uid="ent0018" id="entity_support_tickets"><rect fill="#F1F1F1" height="162.0781" rx="2.5" ry="2.5" style="stroke:#181818;stroke-width:0.5;" width="371.3105" x="2000.81" y="312.05"/><ellipse cx="2128.5497" cy="328.05" fill="#ADD1B2" rx="11" ry="11" style="stroke:#181818;stroke-width:1;"/><path d="M2132.6591,334.05 L2124.9404,334.05 L2124.9404,321.6594 L2132.6591,321.6594 L2132.6591,323.8156 L2127.3935,323.8156 L2127.3935,326.4875 L2132.1591,326.4875 L2132.1591,328.6438 L2127.3935,328.6438 L2127.3935,331.8938 L2132.6591,331.8938 L2132.6591,334.05 Z " fill="#000000"/><text fill="#000000" font-family="sans-serif" font-size="14" lengthAdjust="spacing" textLength="107.3311" x="2149.0497" y="332.8967">support_tickets</text><line style="stroke:#181818;stroke-width:0.5;" x1="2001.81" x2="2371.1205" y1="344.05" y2="344.05"/><ellipse cx="2011.81" cy="357.6984" fill="#000000" rx="3" ry="3" style="stroke:#000000;stroke-width:1;"/><text fill="#000000" font-family="sans-serif" font-size="14" lengthAdjust="spacing" textLength="101.001" x="2020.81" y="361.0451">id : UUID &#171;PK&#187;</text><line style="stroke:#181818;stroke-width:1;" x1="2001.81" x2="2371.1205" y1="368.3469" y2="368.3469"/><text fill="#000000" font-family="sans-serif" font-size="14" lengthAdjust="spacing" textLength="138.1475" x="2006.81" y="385.342">user_id : UUID &#171;FK&#187;</text><text fill="#000000" font-family="sans-serif" font-size="14" lengthAdjust="spacing" textLength="148.0527" x="2006.81" y="401.6389">agent_id : UUID &#171;FK&#187;</text><text fill="#000000" font-family="sans-serif" font-size="14" lengthAdjust="spacing" textLength="104.5488" x="2006.81" y="417.9357">subject : string</text><text fill="#000000" font-family="sans-serif" font-size="14" lengthAdjust="spacing" textLength="359.3105" x="2006.81" y="434.2326">status : enum (open, in_progress, resolved, closed)</text><text fill="#000000" font-family="sans-serif" font-size="14" lengthAdjust="spacing" textLength="163.8369" x="2006.81" y="450.5295">created_at : timestamp</text><text fill="#000000" font-family="sans-serif" font-size="14" lengthAdjust="spacing" textLength="170.1055" x="2006.81" y="466.8264">resolved_at : timestamp</text></g><g class="entity" data-entity="GMN19" data-source-line="86" data-uid="ent0020" id="entity_GMN19"><path d="M1950.35,150.88 L1950.35,191.1456 A0,0 0 0 0 1950.35,191.1456 L2244.35,191.1456 L2248.35,311.63 L2252.35,191.1456 L2422.5668,191.1456 A0,0 0 0 0 2422.5668,191.1456 L2422.5668,160.88 L2412.5668,150.88 L1950.35,150.88 A0,0 0 0 0 1950.35,150.88" fill="#FEFFDD" style="stroke:#181818;stroke-width:0.5;"/><path d="M2412.5668,150.88 L2412.5668,160.88 L2422.5668,160.88 L2412.5668,150.88" fill="#FEFFDD" style="stroke:#181818;stroke-width:0.5;"/><text fill="#000000" font-family="sans-serif" font-size="13" lengthAdjust="spacing" textLength="340.3105" x="1956.35" y="167.9469">&#1054;&#1073;&#1088;&#1072;&#1097;&#1077;&#1085;&#1080;&#1103; &#1087;&#1086;&#1083;&#1100;&#1079;&#1086;&#1074;&#1072;&#1090;&#1077;&#1083;&#1077;&#1081; &#1074; &#1089;&#1083;&#1091;&#1078;&#1073;&#1091; &#1087;&#1086;&#1076;&#1076;&#1077;&#1088;&#1078;&#1082;&#1080;.</text><text fill="#000000" font-family="sans-serif" font-size="13" lengthAdjust="spacing" textLength="451.2168" x="1956.35" y="183.0797">agent_id &#1089;&#1089;&#1099;&#1083;&#1072;&#1077;&#1090;&#1089;&#1103; &#1085;&#1072; &#1087;&#1086;&#1083;&#1100;&#1079;&#1086;&#1074;&#1072;&#1090;&#1077;&#1083;&#1103; &#1089; &#1088;&#1086;&#1083;&#1100;&#1102; "&#1072;&#1075;&#1077;&#1085;&#1090; &#1087;&#1086;&#1076;&#1076;&#1077;&#1088;&#1078;&#1082;&#1080;".</text></g><!--class ticket_messages--><g class="entity" data-entity="ticket_messages" data-source-line="90" data-uid="ent0022" id="entity_ticket_messages"><rect fill="#F1F1F1" height="145.7813" rx="2.5" ry="2.5" style="stroke:#181818;stroke-width:0.5;" width="247.1768" x="2333.87" y="574.87"/><ellipse cx="2394.9594" cy="590.87" fill="#ADD1B2" rx="11" ry="11" style="stroke:#181818;stroke-width:1;"/><path d="M2399.0687,596.87 L2391.35,596.87 L2391.35,584.4794 L2399.0687,584.4794 L2399.0687,586.6356 L2393.8031,586.6356 L2393.8031,589.3075 L2398.5687,589.3075 L2398.5687,591.4638 L2393.8031,591.4638 L2393.8031,594.7138 L2399.0687,594.7138 L2399.0687,596.87 Z " fill="#000000"/><text fill="#000000" font-family="sans-serif" font-size="14" lengthAdjust="spacing" textLength="116.498" x="2415.4594" y="595.7167">ticket_messages</text><line style="stroke:#181818;stroke-width:0.5;" x1="2334.87" x2="2580.0468" y1="606.87" y2="606.87"/><ellipse cx="2344.87" cy="620.5184" fill="#000000" rx="3" ry="3" style="stroke:#000000;stroke-width:1;"/><text fill="#000000" font-family="sans-serif" font-size="14" lengthAdjust="spacing" textLength="101.001" x="2353.87" y="623.8651">id : UUID &#171;PK&#187;</text><line style="stroke:#181818;stroke-width:1;" x1="2334.87" x2="2580.0468" y1="631.1669" y2="631.1669"/><text fill="#000000" font-family="sans-serif" font-size="14" lengthAdjust="spacing" textLength="146.8975" x="2339.87" y="648.162">ticket_id : UUID &#171;FK&#187;</text><text fill="#000000" font-family="sans-serif" font-size="14" lengthAdjust="spacing" textLength="235.1768" x="2339.87" y="664.4589">sender_type : enum (user, agent)</text><text fill="#000000" font-family="sans-serif" font-size="14" lengthAdjust="spacing" textLength="116.833" x="2339.87" y="680.7557">sender_id : UUID</text><text fill="#000000" font-family="sans-serif" font-size="14" lengthAdjust="spacing" textLength="95.0947" x="2339.87" y="697.0526">content : text</text><text fill="#000000" font-family="sans-serif" font-size="14" lengthAdjust="spacing" textLength="163.8369" x="2339.87" y="713.3495">created_at : timestamp</text></g><g class="entity" data-entity="GMN23" data-source-line="101" data-uid="ent0024" id="entity_GMN23"><path d="M2406.93,380.52 L2406.93,405.6528 A0,0 0 0 0 2406.93,405.6528 L2489.99,405.6528 L2493.99,574.58 L2497.99,405.6528 L2970.0008,405.6528 A0,0 0 0 0 2970.0008,405.6528 L2970.0008,390.52 L2960.0008,380.52 L2406.93,380.52 A0,0 0 0 0 2406.93,380.52" fill="#FEFFDD" style="stroke:#181818;stroke-width:0.5;"/><path d="M2960.0008,380.52 L2960.0008,390.52 L2970.0008,390.52 L2960.0008,380.52" fill="#FEFFDD" style="stroke:#181818;stroke-width:0.5;"/><text fill="#000000" font-family="sans-serif" font-size="13" lengthAdjust="spacing" textLength="542.0708" x="2412.93" y="397.5869">&#1057;&#1086;&#1086;&#1073;&#1097;&#1077;&#1085;&#1080;&#1103; &#1074;&#1085;&#1091;&#1090;&#1088;&#1080; &#1086;&#1073;&#1088;&#1072;&#1097;&#1077;&#1085;&#1080;&#1103; &#8212; &#1087;&#1077;&#1088;&#1077;&#1087;&#1080;&#1089;&#1082;&#1072; &#1084;&#1077;&#1078;&#1076;&#1091; &#1087;&#1086;&#1083;&#1100;&#1079;&#1086;&#1074;&#1072;&#1090;&#1077;&#1083;&#1077;&#1084; &#1080; &#1072;&#1075;&#1077;&#1085;&#1090;&#1086;&#1084;.</text></g><!--class telemetry_raw--><g class="entity" data-entity="telemetry_raw" data-source-line="104" data-uid="ent0026" id="entity_telemetry_raw"><rect fill="#F1F1F1" height="162.0781" rx="2.5" ry="2.5" style="stroke:#181818;stroke-width:0.5;" width="184.9766" x="686.97" y="566.72"/><ellipse cx="725.2821" cy="582.72" fill="#ADD1B2" rx="11" ry="11" style="stroke:#181818;stroke-width:1;"/><path d="M729.3915,588.72 L721.6727,588.72 L721.6727,576.3294 L729.3915,576.3294 L729.3915,578.4856 L724.1259,578.4856 L724.1259,581.1575 L728.8915,581.1575 L728.8915,583.3138 L724.1259,583.3138 L724.1259,586.5638 L729.3915,586.5638 L729.3915,588.72 Z " fill="#000000"/><text fill="#000000" font-family="sans-serif" font-size="14" lengthAdjust="spacing" textLength="101.1719" x="744.4626" y="587.5667">telemetry_raw</text><line style="stroke:#181818;stroke-width:0.5;" x1="687.97" x2="870.9466" y1="598.72" y2="598.72"/><ellipse cx="697.97" cy="612.3684" fill="#000000" rx="3" ry="3" style="stroke:#000000;stroke-width:1;"/><text fill="#000000" font-family="sans-serif" font-size="14" lengthAdjust="spacing" textLength="101.001" x="706.97" y="615.7151">id : UUID &#171;PK&#187;</text><line style="stroke:#181818;stroke-width:1;" x1="687.97" x2="870.9466" y1="623.0169" y2="623.0169"/><text fill="#000000" font-family="sans-serif" font-size="14" lengthAdjust="spacing" textLength="153.5967" x="692.97" y="640.012">device_id : UUID &#171;FK&#187;</text><text fill="#000000" font-family="sans-serif" font-size="14" lengthAdjust="spacing" textLength="145.5918" x="692.97" y="656.3089">metric_name : string</text><text fill="#000000" font-family="sans-serif" font-size="14" lengthAdjust="spacing" textLength="151.6553" x="692.97" y="672.6057">metric_value : double</text><text fill="#000000" font-family="sans-serif" font-size="14" lengthAdjust="spacing" textLength="131.9541" x="692.97" y="688.9026">event_type : string</text><text fill="#000000" font-family="sans-serif" font-size="14" lengthAdjust="spacing" textLength="172.9766" x="692.97" y="705.1995">recorded_at : timestamp</text><text fill="#000000" font-family="sans-serif" font-size="14" lengthAdjust="spacing" textLength="170.5566" x="692.97" y="721.4964">received_at : timestamp</text></g><g class="entity" data-entity="GMN27" data-source-line="116" data-uid="ent0028" id="entity_GMN27"><path d="M539.71,805.09 L539.71,845.3556 A0,0 0 0 0 539.71,845.3556 L1019.2076,845.3556 A0,0 0 0 0 1019.2076,845.3556 L1019.2076,815.09 L1009.2076,805.09 L783.46,805.09 L779.46,729.22 L775.46,805.09 L539.71,805.09 A0,0 0 0 0 539.71,805.09" fill="#FEFFDD" style="stroke:#181818;stroke-width:0.5;"/><path d="M1009.2076,805.09 L1009.2076,815.09 L1019.2076,815.09 L1009.2076,805.09" fill="#FEFFDD" style="stroke:#181818;stroke-width:0.5;"/><text fill="#000000" font-family="sans-serif" font-size="13" lengthAdjust="spacing" textLength="277.7354" x="545.71" y="822.1569">&#1057;&#1099;&#1088;&#1099;&#1077; &#1076;&#1072;&#1085;&#1085;&#1099;&#1077; &#1090;&#1077;&#1083;&#1077;&#1084;&#1077;&#1090;&#1088;&#1080;&#1080; &#1089; &#1091;&#1089;&#1090;&#1088;&#1086;&#1081;&#1089;&#1090;&#1074;.</text><text fill="#000000" font-family="sans-serif" font-size="13" lengthAdjust="spacing" textLength="458.4976" x="545.71" y="837.2897">&#1061;&#1088;&#1072;&#1085;&#1103;&#1090;&#1089;&#1103; &#1074; Time-Series &#1073;&#1072;&#1079;&#1077;, &#1085;&#1086; &#1083;&#1086;&#1075;&#1080;&#1095;&#1077;&#1089;&#1082;&#1080; &#1089;&#1074;&#1103;&#1079;&#1072;&#1085;&#1099; &#1089; &#1091;&#1089;&#1090;&#1088;&#1086;&#1081;&#1089;&#1090;&#1074;&#1086;&#1084;.</text></g><!--class telemetry_aggregates--><g class="entity" data-entity="telemetry_aggregates" data-source-line="120" data-uid="ent0030" id="entity_telemetry_aggregates"><rect fill="#F1F1F1" height="194.6719" rx="2.5" ry="2.5" style="stroke:#181818;stroke-width:0.5;" width="270.1182" x="1033.4" y="550.42"/><ellipse cx="1086.7237" cy="566.42" fill="#ADD1B2" rx="11" ry="11" style="stroke:#181818;stroke-width:1;"/><path d="M1090.8331,572.42 L1083.1144,572.42 L1083.1144,560.0294 L1090.8331,560.0294 L1090.8331,562.1856 L1085.5675,562.1856 L1085.5675,564.8575 L1090.3331,564.8575 L1090.3331,567.0138 L1085.5675,567.0138 L1085.5675,570.2638 L1090.8331,570.2638 L1090.8331,572.42 Z " fill="#000000"/><text fill="#000000" font-family="sans-serif" font-size="14" lengthAdjust="spacing" textLength="154.9707" x="1107.2237" y="571.2667">telemetry_aggregates</text><line style="stroke:#181818;stroke-width:0.5;" x1="1034.4" x2="1302.5182" y1="582.42" y2="582.42"/><ellipse cx="1044.4" cy="596.0684" fill="#000000" rx="3" ry="3" style="stroke:#000000;stroke-width:1;"/><text fill="#000000" font-family="sans-serif" font-size="14" lengthAdjust="spacing" textLength="101.001" x="1053.4" y="599.4151">id : UUID &#171;PK&#187;</text><line style="stroke:#181818;stroke-width:1;" x1="1034.4" x2="1302.5182" y1="606.7169" y2="606.7169"/><text fill="#000000" font-family="sans-serif" font-size="14" lengthAdjust="spacing" textLength="153.5967" x="1039.4" y="623.712">device_id : UUID &#171;FK&#187;</text><text fill="#000000" font-family="sans-serif" font-size="14" lengthAdjust="spacing" textLength="145.5918" x="1039.4" y="640.0089">metric_name : string</text><text fill="#000000" font-family="sans-serif" font-size="14" lengthAdjust="spacing" textLength="258.1182" x="1039.4" y="656.3057">period : enum (hourly, daily, weekly)</text><text fill="#000000" font-family="sans-serif" font-size="14" lengthAdjust="spacing" textLength="173.3389" x="1039.4" y="672.6026">period_start : timestamp</text><text fill="#000000" font-family="sans-serif" font-size="14" lengthAdjust="spacing" textLength="132.3232" x="1039.4" y="688.8995">avg_value : double</text><text fill="#000000" font-family="sans-serif" font-size="14" lengthAdjust="spacing" textLength="132.9727" x="1039.4" y="705.1964">min_value : double</text><text fill="#000000" font-family="sans-serif" font-size="14" lengthAdjust="spacing" textLength="137.0742" x="1039.4" y="721.4932">max_value : double</text><text fill="#000000" font-family="sans-serif" font-size="14" lengthAdjust="spacing" textLength="71.3672" x="1039.4" y="737.7901">count : int</text></g><g class="entity" data-entity="GMN31" data-source-line="134" data-uid="ent0032" id="entity_GMN31"><path d="M1007.81,372.95 L1007.81,413.2156 A0,0 0 0 0 1007.81,413.2156 L1164.46,413.2156 L1168.46,549.99 L1172.46,413.2156 L1579.1137,413.2156 A0,0 0 0 0 1579.1137,413.2156 L1579.1137,382.95 L1569.1137,372.95 L1007.81,372.95 A0,0 0 0 0 1007.81,372.95" fill="#FEFFDD" style="stroke:#181818;stroke-width:0.5;"/><path d="M1569.1137,372.95 L1569.1137,382.95 L1579.1137,382.95 L1569.1137,372.95" fill="#FEFFDD" style="stroke:#181818;stroke-width:0.5;"/><text fill="#000000" font-family="sans-serif" font-size="13" lengthAdjust="spacing" textLength="550.3037" x="1013.81" y="390.0169">&#1055;&#1088;&#1077;&#1076;&#1074;&#1072;&#1088;&#1080;&#1090;&#1077;&#1083;&#1100;&#1085;&#1086; &#1088;&#1072;&#1089;&#1089;&#1095;&#1080;&#1090;&#1072;&#1085;&#1085;&#1099;&#1077; &#1072;&#1075;&#1088;&#1077;&#1075;&#1072;&#1090;&#1099; &#1076;&#1083;&#1103; &#1073;&#1099;&#1089;&#1090;&#1088;&#1086;&#1081; &#1074;&#1080;&#1079;&#1091;&#1072;&#1083;&#1080;&#1079;&#1072;&#1094;&#1080;&#1080; &#1075;&#1088;&#1072;&#1092;&#1080;&#1082;&#1086;&#1074;.</text><text fill="#000000" font-family="sans-serif" font-size="13" lengthAdjust="spacing" textLength="301.0186" x="1013.81" y="405.1497">&#1054;&#1073;&#1085;&#1086;&#1074;&#1083;&#1103;&#1102;&#1090;&#1089;&#1103; &#1087;&#1086; &#1088;&#1072;&#1089;&#1087;&#1080;&#1089;&#1072;&#1085;&#1080;&#1102; &#1080;&#1083;&#1080; &#1087;&#1086;&#1090;&#1086;&#1082;&#1086;&#1074;&#1086;.</text></g><!--link users to devices--><g class="link" data-entity-1="users" data-entity-2="devices" data-source-line="140" data-uid="lnk34" id="link_users_devices"><path codeLine="140" d="M1747.51,244.06 C1747.51,276.27 1747.51,300.36 1747.51,300.36 C1747.51,300.36 1274.21,300.36 991.62,300.36" fill="none" id="users-devices" style="stroke:#181818;stroke-width:1;"/><line style="stroke:#181818;stroke-width:1;" x1="1743.51" x2="1751.51" y1="240.06" y2="240.06"/><line style="stroke:#181818;stroke-width:1;" x1="1743.51" x2="1751.51" y1="243.06" y2="243.06"/><line style="stroke:#181818;stroke-width:1;" x1="1747.51" x2="1747.51" y1="244.06" y2="236.06"/><line style="stroke:#181818;stroke-width:1;" x1="981.62" x2="973.62" y1="300.36" y2="306.36"/><line style="stroke:#181818;stroke-width:1;" x1="981.62" x2="973.62" y1="300.36" y2="294.36"/><line style="stroke:#181818;stroke-width:1;" x1="981.62" x2="973.62" y1="300.36" y2="300.36"/><ellipse cx="987.62" cy="300.36" fill="none" rx="4" ry="4" style="stroke:#181818;stroke-width:1;"/><text fill="#000000" font-family="sans-serif" font-size="13" lengthAdjust="spacing" textLength="56.4941" x="1335.71" y="296.4269">&#1074;&#1083;&#1072;&#1076;&#1077;&#1077;&#1090;</text></g><!--link users to automation_rules--><g class="link" data-entity-1="users" data-entity-2="automation_rules" data-source-line="141" data-uid="lnk35" id="link_users_automation_rules"><path codeLine="141" d="M1831.41,244.14 C1831.41,265.26 1831.41,263.06 1831.41,285.63" fill="none" id="users-automation_rules" style="stroke:#181818;stroke-width:1;"/><line style="stroke:#181818;stroke-width:1;" x1="1827.41" x2="1835.41" y1="240.14" y2="240.14"/><line style="stroke:#181818;stroke-width:1;" x1="1827.41" x2="1835.41" y1="243.14" y2="243.14"/><line style="stroke:#181818;stroke-width:1;" x1="1831.41" x2="1831.41" y1="244.14" y2="236.14"/><line style="stroke:#181818;stroke-width:1;" x1="1831.41" x2="1837.41" y1="295.63" y2="303.63"/><line style="stroke:#181818;stroke-width:1;" x1="1831.41" x2="1825.41" y1="295.63" y2="303.63"/><line style="stroke:#181818;stroke-width:1;" x1="1831.41" x2="1831.41" y1="295.63" y2="303.63"/><ellipse cx="1831.41" cy="289.63" fill="none" rx="4" ry="4" style="stroke:#181818;stroke-width:1;"/><text fill="#000000" font-family="sans-serif" font-size="13" lengthAdjust="spacing" textLength="54.5391" x="1776.41" y="265.9569">&#1089;&#1086;&#1079;&#1076;&#1072;&#1105;&#1090;</text></g><!--link users to support_tickets--><g class="link" data-entity-1="users" data-entity-2="support_tickets" data-source-line="142" data-uid="lnk36" id="link_users_support_tickets"><path codeLine="142" d="M1923.68,214.36 C2018.67,214.36 2124.58,214.36 2124.58,214.36 C2124.58,214.36 2124.58,246.43 2124.58,293.57" fill="none" id="users-support_tickets" style="stroke:#181818;stroke-width:1;"/><line style="stroke:#181818;stroke-width:1;" x1="1919.68" x2="1919.68" y1="218.36" y2="210.36"/><line style="stroke:#181818;stroke-width:1;" x1="1922.68" x2="1922.68" y1="218.36" y2="210.36"/><line style="stroke:#181818;stroke-width:1;" x1="1923.68" x2="1915.68" y1="214.36" y2="214.36"/><line style="stroke:#181818;stroke-width:1;" x1="2124.58" x2="2130.58" y1="303.57" y2="311.57"/><line style="stroke:#181818;stroke-width:1;" x1="2124.58" x2="2118.58" y1="303.57" y2="311.57"/><line style="stroke:#181818;stroke-width:1;" x1="2124.58" x2="2124.58" y1="303.57" y2="311.57"/><ellipse cx="2124.58" cy="297.57" fill="none" rx="4" ry="4" style="stroke:#181818;stroke-width:1;"/><text fill="#000000" font-family="sans-serif" font-size="13" lengthAdjust="spacing" textLength="73.0933" x="1994.73" y="210.4269">&#1086;&#1090;&#1082;&#1088;&#1099;&#1074;&#1072;&#1077;&#1090;</text></g><!--link devices to device_capabilities--><g class="link" data-entity-1="devices" data-entity-2="device_capabilities" data-source-line="144" data-uid="lnk37" id="link_devices_device_capabilities"><path codeLine="144" d="M636.34,498.69 C636.34,570.75 636.34,648.36 636.34,648.36 C636.34,648.36 593.05,648.36 534.75,648.36" fill="none" id="devices-device_capabilities" style="stroke:#181818;stroke-width:1;"/><line style="stroke:#181818;stroke-width:1;" x1="632.34" x2="640.34" y1="494.69" y2="494.69"/><line style="stroke:#181818;stroke-width:1;" x1="632.34" x2="640.34" y1="497.69" y2="497.69"/><line style="stroke:#181818;stroke-width:1;" x1="636.34" x2="636.34" y1="498.69" y2="490.69"/><line style="stroke:#181818;stroke-width:1;" x1="524.75" x2="516.75" y1="648.36" y2="654.36"/><line style="stroke:#181818;stroke-width:1;" x1="524.75" x2="516.75" y1="648.36" y2="642.36"/><line style="stroke:#181818;stroke-width:1;" x1="524.75" x2="516.75" y1="648.36" y2="648.36"/><ellipse cx="530.75" cy="648.36" fill="none" rx="4" ry="4" style="stroke:#181818;stroke-width:1;"/><text fill="#000000" font-family="sans-serif" font-size="13" lengthAdjust="spacing" textLength="41.8247" x="594.34" y="625.3869">&#1080;&#1084;&#1077;&#1077;&#1090;</text></g><!--link devices to telemetry_raw--><g class="link" data-entity-1="devices" data-entity-2="telemetry_raw" data-source-line="145" data-uid="lnk38" id="link_devices_telemetry_raw"><path codeLine="145" d="M779.46,498.82 C779.46,523.79 779.46,524.37 779.46,548.41" fill="none" id="devices-telemetry_raw" style="stroke:#181818;stroke-width:1;"/><line style="stroke:#181818;stroke-width:1;" x1="775.46" x2="783.46" y1="494.82" y2="494.82"/><line style="stroke:#181818;stroke-width:1;" x1="775.46" x2="783.46" y1="497.82" y2="497.82"/><line style="stroke:#181818;stroke-width:1;" x1="779.46" x2="779.46" y1="498.82" y2="490.82"/><line style="stroke:#181818;stroke-width:1;" x1="779.46" x2="785.46" y1="558.41" y2="566.41"/><line style="stroke:#181818;stroke-width:1;" x1="779.46" x2="773.46" y1="558.41" y2="566.41"/><line style="stroke:#181818;stroke-width:1;" x1="779.46" x2="779.46" y1="558.41" y2="566.41"/><ellipse cx="779.46" cy="552.41" fill="none" rx="4" ry="4" style="stroke:#181818;stroke-width:1;"/><text fill="#000000" font-family="sans-serif" font-size="13" lengthAdjust="spacing" textLength="79.5425" x="699.46" y="524.6869">&#1075;&#1077;&#1085;&#1077;&#1088;&#1080;&#1088;&#1091;&#1077;&#1090;</text></g><!--link devices to telemetry_aggregates--><g class="link" data-entity-1="devices" data-entity-2="telemetry_aggregates" data-source-line="146" data-uid="lnk39" id="link_devices_telemetry_aggregates"><path codeLine="146" d="M922.58,498.77 C922.58,534.96 922.58,559.36 922.58,559.36 C922.58,559.36 957.93,559.36 1014.94,559.36" fill="none" id="devices-telemetry_aggregates" style="stroke:#181818;stroke-width:1;"/><line style="stroke:#181818;stroke-width:1;" x1="918.58" x2="926.58" y1="494.77" y2="494.77"/><line style="stroke:#181818;stroke-width:1;" x1="918.58" x2="926.58" y1="497.77" y2="497.77"/><line style="stroke:#181818;stroke-width:1;" x1="922.58" x2="922.58" y1="498.77" y2="490.77"/><line style="stroke:#181818;stroke-width:1;" x1="1024.94" x2="1032.94" y1="559.36" y2="553.36"/><line style="stroke:#181818;stroke-width:1;" x1="1024.94" x2="1032.94" y1="559.36" y2="565.36"/><line style="stroke:#181818;stroke-width:1;" x1="1024.94" x2="1032.94" y1="559.36" y2="559.36"/><ellipse cx="1018.94" cy="559.36" fill="none" rx="4" ry="4" style="stroke:#181818;stroke-width:1;"/><text fill="#000000" font-family="sans-serif" font-size="13" lengthAdjust="spacing" textLength="113.3945" x="829.46" y="555.4269">&#1072;&#1075;&#1088;&#1077;&#1075;&#1080;&#1088;&#1091;&#1077;&#1090;&#1089;&#1103; &#1087;&#1086;</text></g><!--link support_tickets to ticket_messages--><g class="link" data-entity-1="support_tickets" data-entity-2="ticket_messages" data-source-line="148" data-uid="lnk40" id="link_support_tickets_ticket_messages"><path codeLine="148" d="M2352.99,482.37 C2352.99,514.54 2352.99,525.24 2352.99,556.57" fill="none" id="support_tickets-ticket_messages" style="stroke:#181818;stroke-width:1;"/><line style="stroke:#181818;stroke-width:1;" x1="2348.99" x2="2356.99" y1="478.37" y2="478.37"/><line style="stroke:#181818;stroke-width:1;" x1="2348.99" x2="2356.99" y1="481.37" y2="481.37"/><line style="stroke:#181818;stroke-width:1;" x1="2352.99" x2="2352.99" y1="482.37" y2="474.37"/><line style="stroke:#181818;stroke-width:1;" x1="2352.99" x2="2358.99" y1="566.57" y2="574.57"/><line style="stroke:#181818;stroke-width:1;" x1="2352.99" x2="2346.99" y1="566.57" y2="574.57"/><line style="stroke:#181818;stroke-width:1;" x1="2352.99" x2="2352.99" y1="566.57" y2="574.57"/><ellipse cx="2352.99" cy="560.57" fill="none" rx="4" ry="4" style="stroke:#181818;stroke-width:1;"/><text fill="#000000" font-family="sans-serif" font-size="13" lengthAdjust="spacing" textLength="68.0723" x="2283.99" y="520.5369">&#1089;&#1086;&#1076;&#1077;&#1088;&#1078;&#1080;&#1090;</text></g><!--SRC=[hLTTRnD757tthnYv3n3avALFHHIfQelweHPQmhEryGxEajqTTtSSY00f40gge8b0bSeB88hwqASQ4yFY4FilpFw5_fAUUsTtlLvl6eGQXBs-CtVcpZtddZjxGfX7PcmEqjtqdXcOaNadllnnERsLtZO9h0yQwvuhXGnwUai4CbYJKTo8DxomvqHE87mlb7gh9uMAzBeg3SXGU_2utX1YpUbiT2FL3ztFbQyYyT6vJ-WVZQZ8bL5c_PZ_6ZSRZHFYK_eJvhbvOVuoJynJFFrX7bjpev6jtUp72AOfd5Zm4szsIdYkE2qkNVhw2t7cp8Llpvw5SNaP7p9mF1z3iOwyi2kkfplc44SSuz0ufZbCxvktDp4lT09PJCFlJYGTBTsses7LNY1ZxGGz3E1RzsCOPTWFn4cdexrDsH9nF-x9q9Nk4fqbL5eAhNf2NRPHmj4yCnFUyms-XsQ0L8_CWKb4Uiiad7cWaDuN_sp_9Z1-W0ZtQKRw8BqBCm9_H-6cFmlO9_Y1LLPetSTu7W78sm8kOpeQ7P9-9kGrJRTXnuBf7a_2TaFu9l2YSTePCoRcBSU0m6XW1Ubs1HrZbdXNRdeTQLEVFH-JV3fwkpnupWw2B3h4a5t5pYWoNqM2YPQdMw_BA524GGiixAxZgmkSMg83hyW13ZACLRH4cqHAguxo2z_W9utfwrhtC4qvlQL5D5L8r6u1jilsGKQHNSrtOjsEfGmhT3Y29nKEPEaYj5ui9Zp35gPNPfAZEsW9CyNJVbwcwKDC8RwEX1cBz5VO9sNgc16puHdMJimmtGFF1ZIVPlDA2znBTrSiA_U9QV1xJPuO9PfyzyFgQajyjRfwGP0aW2iNptzsOQKMFQPimdGz90L9xzWIm_CatHRu01cdVEW48GnvooGBOkzehhKxJizPytnFUtEycxDd72npgQ1YIsICEoKAbwsP6iopDP3QSHtjOFnAhC9w3EUsfdm_HMu9W_jSEYCgi3iiCkFqBauxmTDCQaQ23_-6g_SrGMubjxOE6Sudy9uof5JaswT5KqELGNNTZn2C2dMa_6PBD0EbFHK252qxzDHSAH-94I9YCH580hFi5t5D0TSs5_-80W5lJX98j3t-4sym4PmSiPKM85LYF3aomXx6lQKwE9s-Le730KPzFyEoQln0CLdGYyZhTZ5rJZVa9a91sNVMfOkze1SgT3tQUwda0kDbhvlZBuJ3cLmmUt7RoZvCQqhvqWcFLu8rfN5S8bBrt4Vs1YZ_BPHH0dZ0YRkSuG5p8I6f7r9vaL9mqqQrC-4IfisVZEKX9FysNFT0Em5nISnBKWqqUrGeAZDp7eblBfx_dlXnG5EdSuemfiqW5UObznuYAWX4KIRcBRKOBlkSjB3LuH_tUptS5ThQwsn8RU6ls3uGVQUBFUe6ulxQ5LH2cHbLiKV3RWalRADJT2CPnos1J-LlIXVyy5LCpVm_RWBvv6Eqlt9Egnal2P_qbxneZX1eIYn1Hoc7fho6squDFYlbF0084gC3AqOMVD3cg1Qm1mV1kaDqsnLD-BsoEbwpKxCEN7kmDeuV8meBRiLs3BZPx3eKwKvLgMMYGiiUU6asfN0co22B62LKv3Nztbsw4ZGXzHmPc23j9QI6oCqEQpMuFrb0afLscYaYjmRgX8944ZdSpm6im_gTi8MTvPyAjJRVqfSGzcYh7JbNRRRBbcDoNTCdirpJ2bwdNTNJpBpf-7sokwg_vakwMPEaviWKioFPeUjzRRbqfBVvFW8vTnn60TApRTlKFibQrhDcYRCzYuMHwBpGJ8_In5L4iNnHHdIDW3PIdnkrg5vm3JlW-rY2zwEHbM6-EPVkLRKx7G-QquNOqAKrhc0t6_Y_8SHzmLDkKK3hgX_vMotXujK8NrUbtF2tbefvRU0ILT5pDhkB50WWdej6vzgYiOCNGLhI2_L2rTKa8B_8qcLZQ7lUxBu2SBZcIEZkyS2C4bGzxFUAweekA5bJe-vLG2MuKxs1f0xePZlhdOAz1zdzDN_1WbppxRnuXxBqcHQ1P7K-O0dOpU_BD86hc5Soap8jIY-xZypVvlVPQwvzgRrnOtbPNIzUit3jAxqIWkpD-NaBLoau822wQQ9WqeSB3jNcInjGi6Eki-mcssmqyW3cufc_VfChtqwjIyLZNffeBgiRwsE2pNQEyIeLnMdRd39u2-S238HRFLQ-NAKRvTaftdeGmhy0]--></g></svg>